<svg width="72" height="72" viewBox="0 0 72 72" fill="none" xmlns="http://www.w3.org/2000/svg">
<path d="M56.8871 9.29032V10.4355V12.7903V13.9355V27.8696C56.8871 27.8701 56.8871 27.8705 56.8871 27.871C56.8841 34.5907 54.3451 41.0619 49.7775 45.9907C45.2096 50.9198 38.9495 53.9432 32.2489 54.4563L30.2003 54.6132L28.1365 54.4561C21.4351 53.9463 15.1735 50.9242 10.6053 45.9947C6.03703 41.0652 3.49927 34.5921 3.5 27.8713V27.871V26.7258H11.0007C9.68147 26.8652 8.44239 27.4523 7.49572 28.3989L9.6736 30.5768L7.49571 28.3989C6.40378 29.4909 5.79032 30.9719 5.79032 32.5161L5.79032 32.5201C5.7963 37.7574 7.87945 42.7784 11.5828 46.4818C15.2861 50.1851 20.3071 52.2682 25.5444 52.2742H25.5484H30.1935C31.7378 52.2742 33.2188 51.6608 34.3107 50.5688C35.4027 49.4769 36.0161 47.9959 36.0161 46.4516C36.0161 44.9074 35.4027 43.4264 34.3107 42.3344L31.8359 44.8093L34.3107 42.3344C33.2188 41.2425 31.7378 40.629 30.1935 40.629L25.5522 40.629C25.5512 40.629 25.5503 40.629 25.5493 40.629C23.6794 40.6263 21.8676 39.9792 20.419 38.7967C20.2404 38.6509 20.0687 38.4981 19.9041 38.3387H30.1935C31.7378 38.3387 33.2188 37.7253 34.3107 36.6333C35.4027 35.5414 36.0161 34.0604 36.0161 32.5161C36.0161 30.9719 35.4027 29.4909 34.3107 28.3989C33.3641 27.4523 32.125 26.8652 30.8058 26.7258H44.129H47.629V23.2258V8.12903C47.629 6.90133 48.1167 5.72392 48.9848 4.85581C49.851 3.98969 51.025 3.50223 52.2496 3.50001C53.4769 3.50814 54.6518 3.99927 55.5198 4.86728C56.3881 5.73552 56.8792 6.91079 56.8871 8.13845V9.29032Z" fill="#F8F8F8" stroke="#1E2537" stroke-width="7"/>
</svg>
